# xmcd CD database file
#
# Track frame offsets:
#	150
#	16332
#	32480
#	51760
#	74697
#	98467
#	118917
#	141580
#	160402
#	176760
#	199430
#	219790
#	235909
#	249590
#	269877
#	287332
#
# Disc length: 4096 seconds
#
# Revision: 0
# Processed by: cddbd v1.4PL0 Copyright (c) Steve Scherf et al.
# Submitted via: Feurio! 1.65 - http://www.feurio.com
#
DISCID=f40ffe10
DTITLE=VariousArtists - YU Balade Volume3
DYEAR=1900
DGENRE=
TTITLE0=Bajaga - Dobro jutro
TTITLE1=Magizin - Suze biserne
TTITLE2=Zana - Bojna posta
TTITLE3=Tutti Frutti Bend - Stvari lagane
TTITLE4=Divlje Jagode - Jedina moja
TTITLE5=Bijelo Dugme - Kad zaboravis juli
TTITLE6=Plavi Orkestar - Simpatija
TTITLE7=Boris Novkovic - Tamara
TTITLE8=Crvena Jabuka - Bolio bih da si tu
TTITLE9=Zdravko Èolic - Ti si mi u krvi
TTITLE10=Hari Mata Hari - Sto je bilo bilo je
TTITLE11=Magazin - Tri sam ti zime
TTITLE12=Doris Dragovic - Zeljo moja
TTITLE13=Zana - Dodirni mi kolena
TTITLE14=Hari Mata Hari - Ostavi suze za kraj
TTITLE15=Zdravko Colic - Stanica Podlugovi
EXTD=
EXTT0=
EXTT1=
EXTT2=
EXTT3=
EXTT4=
EXTT5=
EXTT6=
EXTT7=
EXTT8=
EXTT9=
EXTT10=
EXTT11=
EXTT12=
EXTT13=
EXTT14=
EXTT15=
PLAYORDER=
